<svg width="45" height="42" viewBox="0 0 45 42" fill="none" xmlns="http://www.w3.org/2000/svg">
<path d="M7.74562 34.4753V34.4751C7.74997 30.5702 11.1018 27.4303 15.2062 27.4262H15.2064H15.2068L7.74562 34.4753ZM7.74562 34.4753C7.74562 38.3823 11.1002 41.5246 15.2068 41.5246C19.2255 41.5246 22.5239 38.5155 22.6634 34.7254M7.74562 34.4753L22.6634 34.7254M29.1369 29.433V29.4327C29.1413 25.5278 32.4931 22.3879 36.5975 22.3838H36.5977H36.5981L29.1369 29.433ZM29.1369 29.433C29.1369 33.3399 32.4915 36.4823 36.5981 36.4823C40.6168 36.4823 43.9152 33.4732 44.0547 29.6831M29.1369 29.433L44.0547 29.6831M44.0547 29.6831H44.0593V29.4331V1.97081V1.65501L43.7519 1.72748L18.6339 7.65003L18.4413 7.69545V7.89336V28.1216C17.4617 27.6757 16.3641 27.4262 15.2068 27.4262L44.0547 29.6831ZM22.6634 34.7254H22.668V34.4754V17.5623L39.8326 13.5162V23.0793C38.853 22.6334 37.7555 22.3838 36.5982 22.3838L22.6634 34.7254ZM5.31236 15.9927C5.37479 16.2348 5.37489 16.2348 5.37501 16.2348L5.37533 16.2347L5.37627 16.2344L5.37933 16.2336L5.3901 16.2307L5.42952 16.2198C5.46348 16.2102 5.51248 16.1958 5.57436 16.1765C5.69808 16.1378 5.8736 16.079 6.08371 15.9978C6.50314 15.8359 7.06444 15.5834 7.62767 15.2214C8.74828 14.5012 9.92266 13.3149 9.92266 11.5126C9.92266 10.1189 8.72884 9.01379 7.28756 9.01379L7.28659 9.01379C6.50058 9.01681 5.7927 9.34632 5.31035 9.87074C4.823 9.34967 4.11835 9.02693 3.33721 9.02693C1.90121 9.02689 0.711076 10.1238 0.702154 11.5103H0.702148V11.5119V11.5126C0.702148 13.3149 1.8765 14.5012 2.99709 15.2214C3.56032 15.5834 4.1216 15.8359 4.54102 15.9978C4.75113 16.079 4.92665 16.1378 5.05036 16.1765C5.11225 16.1958 5.16124 16.2102 5.1952 16.2198L5.23462 16.2307L5.24539 16.2336L5.24845 16.2344L5.24939 16.2347L5.24971 16.2348C5.24983 16.2348 5.24993 16.2348 5.31236 15.9927ZM5.31236 15.9927L5.37479 16.2348L5.31236 16.2509L5.24993 16.2348L5.31236 15.9927ZM13.4366 23.7759C13.501 24.0174 13.5011 24.0174 13.5012 24.0174L13.5015 24.0173L13.5024 24.0171L13.505 24.0164L13.514 24.0139L13.5467 24.0045C13.5747 23.9963 13.6151 23.9842 13.6659 23.9679C13.7677 23.9352 13.9118 23.8858 14.0842 23.818C14.4283 23.6827 14.8892 23.4725 15.3519 23.1732C16.2692 22.58 17.2426 21.6025 17.2457 20.1286C17.2472 20.0985 17.2481 20.0651 17.2481 20.0322C17.2481 19.0001 16.4357 18.1688 15.4081 18.042L15.4108 18.0346L15.3137 18.0324C15.2547 18.0277 15.195 18.0253 15.1347 18.0253C15.1085 18.0253 15.0826 18.0257 15.0569 18.0266C15.0441 18.0264 15.0303 18.0263 15.017 18.0263C14.4239 18.0263 13.8847 18.2587 13.4992 18.6365C13.1326 18.0115 12.4374 17.6 11.6479 17.6C10.4918 17.6 9.52913 18.4871 9.52913 19.612C9.52913 19.8022 9.55705 19.9867 9.60922 20.1615C9.62652 21.6345 10.5968 22.6021 11.5133 23.1872C11.9787 23.4843 12.4422 23.6912 12.7882 23.8238C12.9616 23.8902 13.1066 23.9383 13.2089 23.97C13.26 23.9859 13.3006 23.9977 13.3288 24.0056L13.3617 24.0147L13.3708 24.0171L13.3734 24.0178L13.3743 24.018L13.3746 24.018C13.3747 24.0181 13.3748 24.0181 13.4366 23.7759ZM13.4366 23.7759L13.501 24.0174L13.438 24.0342L13.3748 24.0181L13.4366 23.7759ZM14.3124 4.99449C14.3743 5.23672 14.3744 5.2367 14.3745 5.23667L14.3747 5.2366L14.3754 5.23642L14.3776 5.23586L14.3848 5.23395L14.4102 5.22696C14.4319 5.22087 14.4629 5.21186 14.5018 5.19975C14.5797 5.17557 14.6898 5.13894 14.8213 5.08841C15.0836 4.98766 15.4353 4.83011 15.789 4.60315C16.4909 4.15281 17.2457 3.39692 17.2457 2.23611C17.2457 1.3275 16.4689 0.615723 15.5422 0.615723H15.535C15.0594 0.615723 14.626 0.799514 14.3126 1.09982C14.0011 0.80002 13.5722 0.617814 13.1012 0.617814C12.1755 0.617814 11.3993 1.3282 11.3978 2.23555V2.23595V2.23611C11.3978 3.39608 12.1469 4.152 12.8444 4.60272C13.1958 4.82978 13.5453 4.9874 13.8059 5.0882C13.9365 5.13875 14.0459 5.1754 14.1233 5.19961C14.162 5.21172 14.1928 5.22073 14.2144 5.22684L14.2397 5.23384L14.2468 5.23575L14.249 5.23631L14.2497 5.2365L14.2499 5.23656C14.25 5.23659 14.2501 5.23662 14.3124 4.99449ZM14.3124 4.99449L14.3743 5.23672L14.3122 5.25257L14.2501 5.23662L14.3124 4.99449ZM39.8326 9.38069L22.668 13.4268V10.8339L39.8326 6.78773V9.38069ZM18.4413 34.4754C18.4413 36.1381 17.0073 37.5108 15.2068 37.5108C13.4074 37.5089 11.9743 36.1373 11.9723 34.4751C11.9725 32.8125 13.4065 31.44 15.2068 31.44C17.0072 31.44 18.4413 32.8126 18.4413 34.4754ZM39.8326 29.433C39.8326 31.0958 38.3985 32.4685 36.5981 32.4685C34.7986 32.4666 33.3656 31.095 33.3636 29.4327C33.3638 27.7701 34.7978 26.3976 36.5981 26.3976C38.3985 26.3976 39.8326 27.7703 39.8326 29.433Z" fill="#957DAD" stroke="#957DAD" stroke-width="0.5"/>
</svg>
