<svg width="43" height="43" viewBox="0 0 43 43" fill="none" xmlns="http://www.w3.org/2000/svg">
                                <path d="M7.08022 27.312V27.062H6.83022H3.91504H3.66504V27.312V28.7738C3.66504 31.5537 4.76617 34.2198 6.72643 36.1857C8.68672 38.1516 11.3456 39.2562 14.1182 39.2562H18.4909H18.7409V39.0062V36.0827V35.8327H18.4909H14.1182C12.2518 35.8327 10.4618 35.0891 9.14184 33.7654C7.82189 32.4417 7.08022 30.6461 7.08022 28.7738V27.312Z" fill="#957DAD" stroke="#957DAD" stroke-width="0.5"/>
                                <path d="M32.817 15.6171V15.8671H33.067H35.9821H36.2321V15.6171V14.1553C36.2321 11.3754 35.131 8.70923 33.1707 6.74334C31.2105 4.77742 28.5516 3.67285 25.779 3.67285H21.4062H21.1562V3.92285V6.8464V7.0964H21.4062H25.779C26.7032 7.0964 27.6183 7.27895 28.4721 7.63363C29.3259 7.98832 30.1018 8.5082 30.7553 9.16365C31.4089 9.81909 31.9274 10.5973 32.2811 11.4537C32.6349 12.3102 32.817 13.2282 32.817 14.1553V15.6171Z" fill="#957DAD" stroke="#957DAD" stroke-width="0.5"/>
                                <path d="M0.75 21.4651V21.7151H1H3.91518H4.16518V21.4651V18.5416C4.16518 18.22 4.29258 17.9117 4.51913 17.6845C4.74565 17.4573 5.05273 17.3298 5.37277 17.3298H14.1183C14.4383 17.3298 14.7454 17.4573 14.9719 17.6845C15.1985 17.9117 15.3259 18.22 15.3259 18.5416V21.4651V21.7151H15.5759H18.4911H18.7411V21.4651V18.5416C18.7411 17.3124 18.2542 16.1335 17.3873 15.2642C16.5205 14.3948 15.3446 13.9062 14.1183 13.9062H5.37277C4.1465 13.9062 2.97061 14.3948 2.10372 15.2642C1.23687 16.1335 0.75 17.3124 0.75 18.5416V21.4651Z" fill="#957DAD" stroke="#957DAD" stroke-width="0.5"/>
                                <path d="M9.7454 12.9442C10.9481 12.9442 12.1238 12.5865 13.1237 11.9165C14.1237 11.2464 14.9029 10.2942 15.363 9.18013C15.8231 8.06612 15.9435 6.84034 15.7089 5.65775C15.4744 4.47517 14.8954 3.3888 14.0451 2.53606C13.1948 1.68331 12.1114 1.1025 10.9317 0.867184C9.75213 0.63187 8.52944 0.752648 7.41831 1.21421C6.30719 1.67578 5.35761 2.45736 4.68958 3.46001C4.02155 4.46266 3.66504 5.64137 3.66504 6.84711C3.66504 8.46393 4.30547 10.0147 5.44568 11.1582C6.58591 12.3017 8.13255 12.9442 9.7454 12.9442ZM9.7454 4.17355C10.2724 4.17355 10.7875 4.33026 11.2258 4.62394C11.6641 4.91763 12.0058 5.33514 12.2076 5.82375C12.4094 6.31236 12.4622 6.85006 12.3593 7.36882C12.2564 7.88758 12.0025 8.36399 11.6297 8.73785C11.2569 9.1117 10.7821 9.36621 10.2652 9.46931C9.74836 9.57242 9.21262 9.51951 8.72571 9.31724C8.23879 9.11498 7.8225 8.7724 7.52957 8.33273C7.23662 7.89304 7.08022 7.37604 7.08022 6.84711C7.08022 6.1378 7.36119 5.4577 7.86108 4.95637C8.36096 4.45506 9.03878 4.17355 9.7454 4.17355Z" fill="#957DAD" stroke="#957DAD" stroke-width="0.5"/>
                                <path d="M24.0713 41.93V42.18H24.3213H27.2365H27.4865V41.93V39.0064C27.4865 38.6848 27.6139 38.3765 27.8404 38.1493C28.0669 37.9221 28.374 37.7946 28.6941 37.7946H37.4396C37.7596 37.7946 38.0667 37.9221 38.2932 38.1493C38.5198 38.3765 38.6472 38.6848 38.6472 39.0064V41.93V42.18H38.8972H41.8124H42.0624V41.93V39.0064C42.0624 37.7773 41.5755 36.5984 40.7086 35.729C39.8418 34.8596 38.6659 34.3711 37.4396 34.3711H28.6941C27.4678 34.3711 26.2919 34.8596 25.425 35.729C24.5582 36.5984 24.0713 37.7773 24.0713 39.0064V41.93Z" fill="#957DAD" stroke="#957DAD" stroke-width="0.5"/>
                                <path d="M26.9863 27.3119C26.9863 28.5177 27.3428 29.6964 28.0109 30.699C28.6789 31.7017 29.6285 32.4833 30.7396 32.9448C31.8507 33.4064 33.0734 33.5272 34.253 33.2919C35.4326 33.0566 36.5161 32.4757 37.3664 31.623C38.2167 30.7703 38.7957 29.6839 39.0302 28.5013C39.2648 27.3187 39.1444 26.0929 38.6843 24.9789C38.2242 23.8649 37.4449 22.9126 36.445 22.2426C35.4451 21.5725 34.2694 21.2148 33.0667 21.2148C31.4538 21.2148 29.9072 21.8574 28.767 23.0009C27.6268 24.1444 26.9863 25.6951 26.9863 27.3119ZM35.7319 27.3119C35.7319 27.8409 35.5755 28.3579 35.2825 28.7976C34.9896 29.2372 34.5733 29.5798 34.0864 29.7821C33.5995 29.9843 33.0637 30.0373 32.5469 29.9342C32.03 29.831 31.5552 29.5765 31.1824 29.2027C30.8096 28.8288 30.5556 28.3524 30.4527 27.8337C30.3499 27.3149 30.4027 26.7772 30.6045 26.2886C30.8063 25.8 31.148 25.3825 31.5863 25.0888C32.0245 24.7951 32.5397 24.6384 33.0667 24.6384C33.7733 24.6384 34.4511 24.9199 34.951 25.4212C35.4509 25.9225 35.7319 26.6026 35.7319 27.3119Z" fill="#957DAD" stroke="#957DAD" stroke-width="0.5"/>
                                </svg>