                            <svg width="35" height="35" viewBox="0 0 35 35" fill="none" xmlns="http://www.w3.org/2000/svg">
                                <path fill-rule="evenodd" clip-rule="evenodd" d="M14 31.5C19.799 31.5 24.5 26.799 24.5 21C24.5 15.201 19.799 10.5 14 10.5C8.20103 10.5 3.5 15.201 3.5 21C3.5 26.799 8.20103 31.5 14 31.5ZM14 35C21.732 35 28 28.732 28 21C28 13.268 21.732 7 14 7C6.26797 7 0 13.268 0 21C0 28.732 6.26797 35 14 35Z" fill="#957DAD"/>
                                <path fill-rule="evenodd" clip-rule="evenodd" d="M27.9747 21.8489C30.1375 19.9257 31.5001 17.1219 31.5001 14C31.5001 8.20102 26.799 3.5 21.0001 3.5C17.8781 3.5 15.0744 4.86251 13.151 7.02529C11.408 7.12959 9.75097 7.55274 8.2373 8.23725C10.434 3.37982 15.3224 0 21.0001 0C28.732 0 35.0001 6.26797 35.0001 14C35.0001 19.6777 31.6202 24.566 26.7628 26.7627C27.4473 25.2491 27.8705 23.592 27.9747 21.8489Z" fill="#957DAD"/>
                                <path d="M12.5026 14H15.4974V15.4H18.4922V18.2H12.5026L12.3679 18.2112C12.1952 18.2404 12.039 18.3254 11.9266 18.4513C11.8142 18.5771 11.7525 18.736 11.7525 18.9C11.7525 19.064 11.8142 19.2229 11.9266 19.3487C12.039 19.4746 12.1952 19.5596 12.3679 19.5888L12.5026 19.6H15.4974L15.7429 19.607C16.7142 19.6645 17.6233 20.0733 18.2776 20.7468C18.9319 21.4203 19.2799 22.3055 19.248 23.2149C19.2161 24.1243 18.8066 24.9862 18.1066 25.6181C17.4063 26.2501 16.4706 26.6023 15.4974 26.6V28H12.5026V26.6H9.50784V23.8H15.4974L15.6321 23.7888C15.8048 23.7596 15.961 23.6746 16.0734 23.5487C16.1858 23.4229 16.2475 23.264 16.2475 23.1C16.2475 22.936 16.1858 22.7771 16.0734 22.6513C15.961 22.5254 15.8048 22.4404 15.6321 22.4112L15.4974 22.4H12.5026L12.2571 22.393C11.2858 22.3355 10.3767 21.9267 9.72239 21.2532C9.06816 20.5797 8.72008 19.6945 8.75202 18.7851C8.78396 17.8757 9.19337 17.0138 9.89346 16.3819C10.5937 15.7499 11.5294 15.3977 12.5026 15.4V14Z" fill="#957DAD"/>
                                </svg>